<svg width="338" height="221" viewBox="0 0 338 221" fill="none" xmlns="http://www.w3.org/2000/svg">
<path d="M60.6805 132.735H36.0514C33.317 132.735 31.1071 130.544 31.1071 127.866V63.6061C31.1071 50.4957 20.3189 39.8576 7.00251 39.8576C3.23795 39.8576 0.185303 42.873 0.185303 46.5814V152.42C0.185303 156.784 3.78135 160.323 8.20143 160.323H69.4456C74.7085 160.323 78.9977 156.053 78.9977 150.772C78.9977 140.808 70.7943 132.735 60.6993 132.735H60.6805Z" fill="#002787"/>
<path d="M125.165 77.0724C102.802 77.0724 87.0506 89.6022 82.8553 108.294H46.6147C44.6106 108.294 43.2248 110.298 43.9365 112.171L44.6667 114.119C46.9704 120.224 52.8699 124.27 59.4813 124.27H82.0875C84.616 145.378 101.285 160.323 129.847 160.323C134.698 160.323 139.792 159.893 144.624 158.937C156.255 156.634 158.09 140.545 147.096 136.125C144.175 134.964 140.935 134.458 137.545 134.796C135.915 134.964 134.286 135.058 132.712 135.058C123.067 135.058 115.688 131.799 112.953 123.202V123.165H159.87C162.791 123.165 165.151 120.842 165.151 117.958C165.151 91.9433 149.606 77.0724 125.165 77.0724ZM112.953 108.294H112.635C114.452 101.608 118.665 97.8805 124.546 97.8805C132.244 97.8805 135.709 103.818 135.709 108.294H112.934H112.953Z" fill="#002787"/>
<path d="M277.489 138.186L302.979 110.167C304.59 108.519 305.508 106.309 305.508 104.024V98.8918C305.508 94.0035 301.481 90.033 296.499 90.033H201.111V58.156C201.111 55.5526 198.583 53.6984 196.055 54.4101L193.77 55.0657C182.064 58.4369 174.029 69.0189 174.029 81.0242V128.428C174.029 147.307 182.757 160.323 205.082 160.323C208.828 160.323 214.746 159.762 219.709 158.638C223.53 157.758 226.227 154.311 226.227 150.397C226.227 142.943 220.047 136.875 212.48 136.912H212.349C206.131 136.912 201.111 133.522 201.111 125.075V111.534H268.78L251.474 129.233C244.6 136.256 240.78 145.621 240.78 155.36V158.844C240.78 159.368 241.21 159.799 241.735 159.799H286.048C295.356 159.799 302.885 152.251 302.885 142.962V139.366C302.885 138.747 302.38 138.242 301.762 138.242H277.489V138.186Z" fill="#002787"/>
<path d="M321.428 158.81C326.613 158.524 330.586 154.131 330.303 148.998C330.02 143.865 325.587 139.936 320.402 140.222C315.217 140.508 311.244 144.901 311.528 150.034C311.811 155.167 316.244 159.097 321.428 158.81Z" fill="#002787"/>
<path d="M309.104 163.058C306.407 162.852 302.886 164.781 301.238 166.935C280.785 193.792 246.23 209 209.652 202.108C190.848 198.568 174.217 189.297 161.368 176.356C159.72 174.689 157.51 173.715 155.169 173.715C147.621 173.715 143.632 182.855 148.932 188.23C166.893 206.397 191.204 218.477 218.604 220.613C257.542 223.647 293.371 205.948 315.266 176.824C319.349 171.392 315.846 163.582 309.066 163.077L309.104 163.058Z" fill="#BD8FFF"/>
<path d="M227.857 0.563865C190.455 0.264199 156.423 19.293 136.233 48.6978C132.338 54.3727 136.421 62.0891 143.313 62.0891C146.085 62.0891 148.726 60.778 150.28 58.4744C170.583 28.7138 207.554 11.6141 246.567 19.7425C287.041 28.1893 317.344 63.2877 319.985 104.567C320.378 110.841 320.154 116.947 319.386 122.884C318.786 127.454 321.745 131.949 326.297 132.773C331.204 133.653 335.699 130.263 336.354 125.45C336.635 123.427 336.86 121.367 337.01 119.307C341.955 56.1332 292.322 1.08828 227.857 0.563865Z" fill="#BD8FFF"/>
</svg>
